HIERARCHY
ROOT hips
{
  OFFSET 0 10.6860622 2.3727825e-15
  CHANNELS 6 Xposition Yposition Zposition Yrotation Xrotation Zrotation
  JOINT leftUpperLeg
  {
    OFFSET 0.6642549969 -0.9402397400000004 0
    CHANNELS 3 Yrotation Xrotation Zrotation
    JOINT leftLowerLeg
    {
      OFFSET 0 -3.997221335632195 0
      CHANNELS 3 Yrotation Xrotation Zrotation
      JOINT leftFoot
      {
        OFFSET -0.13777839790000004 -4.6145792000000005 -0.22186036399999998
        CHANNELS 3 Yrotation Xrotation Zrotation
        JOINT leftToes
        {
          OFFSET -0.03777410834999995 -0.9130806927000008 0.85230013
          CHANNELS 3 Yrotation Xrotation Zrotation
          End Site
          {
            OFFSET -0.03777410834999995 -0.9130806927000008 0.85230013
          }
        }
      }
    }
  }
  JOINT rightUpperLeg
  {
    OFFSET -0.6642778626 -0.9402397400000004 0
    CHANNELS 3 Yrotation Xrotation Zrotation
    JOINT rightLowerLeg
    {
      OFFSET 0 -3.997221452859387 0
      CHANNELS 3 Yrotation Xrotation Zrotation
      JOINT rightFoot
      {
        OFFSET 0.1377926176 -4.6145792000000005 -0.22185782299999995
        CHANNELS 3 Yrotation Xrotation Zrotation
        JOINT rightToes
        {
          OFFSET 0.037780746850000047 -0.9130806927000008 0.85230167
          CHANNELS 3 Yrotation Xrotation Zrotation
          End Site
          {
            OFFSET 0.037780746850000047 -0.9130806927000008 0.85230167
          }
        }
      }
    }
  }
  JOINT spine
  {
    OFFSET 0 0.13988381660000015 0
    CHANNELS 3 Yrotation Xrotation Zrotation
    JOINT chest
    {
      OFFSET 0 0.6191039003973773 0
      CHANNELS 3 Yrotation Xrotation Zrotation
      JOINT upperChest
      {
        OFFSET 0 0.9855186130586943 0
        CHANNELS 3 Yrotation Xrotation Zrotation
        JOINT leftShoulder
        {
          OFFSET 0.1807663869 1.5087829790000005 0
          CHANNELS 3 Yrotation Xrotation Zrotation
          JOINT leftUpperArm
          {
            OFFSET 0.5985063006419806 0 0
            CHANNELS 3 Yrotation Xrotation Zrotation
            JOINT leftLowerArm
            {
              OFFSET 2.2993332369501065 0 0
              CHANNELS 3 Yrotation Xrotation Zrotation
              JOINT leftHand
              {
                OFFSET 2.395047042602395 0 0
                CHANNELS 3 Yrotation Xrotation Zrotation
                JOINT leftIndexProximal
                {
                  OFFSET 0.5766295810000004 0.04556643899499946 0.17265095988184
                  CHANNELS 3 Yrotation Xrotation Zrotation
                  JOINT leftIndexIntermediate
                  {
                    OFFSET 0.2957229000000008 -0.019352197700001517 -0.007932640616999987
                    CHANNELS 3 Yrotation Xrotation Zrotation
                    JOINT leftIndexDistal
                    {
                      OFFSET 0.19008243099999922 -0.012484908149998475 -0.002786250786000012
                      CHANNELS 3 Yrotation Xrotation Zrotation
                      End Site
                      {
                        OFFSET 0.19008243099999922 -0.012484908149998475 -0.002786250786000012
                      }
                    }
                  }
                }
                JOINT leftMiddleProximal
                {
                  OFFSET 0.5834975091000001 0.0524350405149987 0.02204081888183999
                  CHANNELS 3 Yrotation Xrotation Zrotation
                  JOINT leftMiddleIntermediate
                  {
                    OFFSET 0.33880573540000003 -0.019871473270000717 -0.00000971183179999946
                    CHANNELS 3 Yrotation Xrotation Zrotation
                    JOINT leftMiddleDistal
                    {
                      OFFSET 0.20676022730000088 -0.012221336379999448 0.0001471936708000235
                      CHANNELS 3 Yrotation Xrotation Zrotation
                      End Site
                      {
                        OFFSET 0.20676022730000088 -0.012221336379999448 0.0001471936708000235
                      }
                    }
                  }
                }
                JOINT leftLittleProximal
                {
                  OFFSET 0.5344154683999995 -0.012880921405001189 -0.24414037221816004
                  CHANNELS 3 Yrotation Xrotation Zrotation
                  JOINT leftLittleIntermediate
                  {
                    OFFSET 0.21758961730000093 -0.011650919939999227 0.011893592810000034
                    CHANNELS 3 Yrotation Xrotation Zrotation
                    JOINT leftLittleDistal
                    {
                      OFFSET 0.1475273964999999 -0.008152365682999818 0.006001092492999946
                      CHANNELS 3 Yrotation Xrotation Zrotation
                      End Site
                      {
                        OFFSET 0.1475273964999999 -0.008152365682999818 0.006001092492999946
                      }
                    }
                  }
                }
                JOINT leftRingProximal
                {
                  OFFSET 0.5799399463000003 0.026911854694997794 -0.12150566991816003
                  CHANNELS 3 Yrotation Xrotation Zrotation
                  JOINT leftRingIntermediate
                  {
                    OFFSET 0.26167887460000006 -0.013480186499999602 0.010996293000000053
                    CHANNELS 3 Yrotation Xrotation Zrotation
                    JOINT leftRingDistal
                    {
                      OFFSET 0.17667108799999987 -0.008990287899999228 0.0055541023999999065
                      CHANNELS 3 Yrotation Xrotation Zrotation
                      End Site
                      {
                        OFFSET 0.17667108799999987 -0.008990287899999228 0.0055541023999999065
                      }
                    }
                  }
                }
                JOINT leftThumbProximal
                {
                  OFFSET 0.11018806699999972 -0.09448718900500053 0.17047963138184
                  CHANNELS 3 Yrotation Xrotation Zrotation
                  JOINT leftThumbIntermediate
                  {
                    OFFSET 0.31062601459999983 -0.08126270900000132 0.15443142000000007
                    CHANNELS 3 Yrotation Xrotation Zrotation
                    JOINT leftThumbDistal
                    {
                      OFFSET 0.21627175790000086 -0.08833193599999878 0.018771167799999988
                      CHANNELS 3 Yrotation Xrotation Zrotation
                      End Site
                      {
                        OFFSET 0.21627175790000086 -0.08833193599999878 0.018771167799999988
                      }
                    }
                  }
                }
              }
            }
          }
        }
        JOINT neck
        {
          OFFSET 0 1.5463305265074576 0
          CHANNELS 3 Yrotation Xrotation Zrotation
          JOINT head
          {
            OFFSET 0 0.8456443600000344 0
            CHANNELS 3 Yrotation Xrotation Zrotation
            JOINT leftEye
            {
              OFFSET 0.30408573140000006 0.5104519199999995 0.1276382305
              CHANNELS 3 Yrotation Xrotation Zrotation
              End Site
              {
                OFFSET 0.30408573140000006 0.5104519199999995 0.1276382305
              }
            }
            JOINT rightEye
            {
              OFFSET -0.30409491089999996 0.5104519199999995 0.1276379445
              CHANNELS 3 Yrotation Xrotation Zrotation
              End Site
              {
                OFFSET -0.30409491089999996 0.5104519199999995 0.1276379445
              }
            }
            JOINT jaw
            {
              OFFSET -3.155239131000001e-7 -0.11984121820000082 0.60178107
              CHANNELS 3 Yrotation Xrotation Zrotation
              End Site
              {
                OFFSET -3.155239131000001e-7 -0.11984121820000082 0.60178107
              }
            }
          }
        }
        JOINT rightShoulder
        {
          OFFSET -0.1807303465 1.5087829790000005 0
          CHANNELS 3 Yrotation Xrotation Zrotation
          JOINT rightUpperArm
          {
            OFFSET -0.5985063796536958 0 0
            CHANNELS 3 Yrotation Xrotation Zrotation
            JOINT rightLowerArm
            {
              OFFSET -2.2993322059002854 0 0
              CHANNELS 3 Yrotation Xrotation Zrotation
              JOINT rightHand
              {
                OFFSET -2.395045314457259 0 0
                CHANNELS 3 Yrotation Xrotation Zrotation
                JOINT rightIndexProximal
                {
                  OFFSET -0.5764487688300002 0.0441371204405987 0.17361932004999997
                  CHANNELS 3 Yrotation Xrotation Zrotation
                  JOINT rightIndexIntermediate
                  {
                    OFFSET -0.29573011380000047 -0.01934826376999843 -0.007698921482999974
                    CHANNELS 3 Yrotation Xrotation Zrotation
                    JOINT rightIndexDistal
                    {
                      OFFSET -0.19008373999999884 -0.012503266380000655 -0.0026365778999999897
                      CHANNELS 3 Yrotation Xrotation Zrotation
                      End Site
                      {
                        OFFSET -0.19008373999999884 -0.012503266380000655 -0.0026365778999999897
                      }
                    }
                  }
                }
                JOINT rightMiddleProximal
                {
                  OFFSET -0.5834852037300005 0.05211639405060153 0.02307162440000001
                  CHANNELS 3 Yrotation Xrotation Zrotation
                  JOINT rightMiddleIntermediate
                  {
                    OFFSET -0.33880114510000003 -0.019952774050000954 0.0002455003561999819
                    CHANNELS 3 Yrotation Xrotation Zrotation
                    JOINT rightMiddleDistal
                    {
                      OFFSET -0.20675694929999955 -0.012273788999999091 0.00030209124000002766
                      CHANNELS 3 Yrotation Xrotation Zrotation
                      End Site
                      {
                        OFFSET -0.20675694929999955 -0.012273788999999091 0.00030209124000002766
                      }
                    }
                  }
                }
                JOINT rightLittleProximal
                {
                  OFFSET -0.5346811737299992 -0.011214256288399227 -0.24363941305000003
                  CHANNELS 3 Yrotation Xrotation Zrotation
                  JOINT rightLittleIntermediate
                  {
                    OFFSET -0.21757715980000092 -0.011771559690000988 0.01201554387
                    CHANNELS 3 Yrotation Xrotation Zrotation
                    JOINT rightLittleDistal
                    {
                      OFFSET -0.1475201849000004 -0.00822055339600003 0.006082065407000015
                      CHANNELS 3 Yrotation Xrotation Zrotation
                      End Site
                      {
                        OFFSET -0.1475201849000004 -0.00822055339600003 0.006082065407000015
                      }
                    }
                  }
                }
                JOINT rightRingProximal
                {
                  OFFSET -0.5800810755299999 0.027657985680600072 -0.12066365025000003
                  CHANNELS 3 Yrotation Xrotation Zrotation
                  JOINT rightRingIntermediate
                  {
                    OFFSET -0.26166445029999974 -0.013623118409999302 0.011164098990000045
                    CHANNELS 3 Yrotation Xrotation Zrotation
                    JOINT rightRingDistal
                    {
                      OFFSET -0.17666387530000027 -0.009072900100000503 0.005668185599999959
                      CHANNELS 3 Yrotation Xrotation Zrotation
                      End Site
                      {
                        OFFSET -0.17666387530000027 -0.009072900100000503 0.005668185599999959
                      }
                    }
                  }
                }
                JOINT rightThumbProximal
                {
                  OFFSET -0.10997596379000074 -0.09577489355940072 0.16989765924999997
                  CHANNELS 3 Yrotation Xrotation Zrotation
                  JOINT rightThumbIntermediate
                  {
                    OFFSET -0.31036620999999986 -0.08229339117999834 0.15440884469999996
                    CHANNELS 3 Yrotation Xrotation Zrotation
                    JOINT rightThumbDistal
                    {
                      OFFSET -0.21631306399999906 -0.08825326400000111 0.018656797720000014
                      CHANNELS 3 Yrotation Xrotation Zrotation
                      End Site
                      {
                        OFFSET -0.21631306399999906 -0.08825326400000111 0.018656797720000014
                      }
                    }
                  }
                }
              }
            }
          }
        }
      }
    }
  }
}
MOTION
Frames: 5
Frame Time: 0.03333333333333333
-1.7550581260879454 -5.328043925855928 9.655618353892745 -0.000003120094696911501 71.30664328983406 -0.0000019555018610863428 -100.15051567397408 -61.11831824368437 115.90609123646615 164.91768065845304 62.698650420631246 156.43405575710057 -2.811462746680243 14.069866233429849 18.74450844108228 0 0 0 99.68199942602901 -60.741949608314854 -114.8580881057167 -164.903667494066 62.69949178974018 -156.5012703690444 2.6565317644415023 13.99565980161526 -17.956036279959026 0 0 0 -0.9421762237570953 38.589313328398966 -1.5676111008860891 -0.8258121435711525 -11.298589421499939 -0.49840885502557236 0 0 0 -10.209594849059402 -6.005170692216166 -7.922796918934134 -19.64874065892914 -68.16577720013122 -52.790284382196255 -33.08431419244988 53.69471702214833 9.503498603960152 4.332936937780752 2.1434015298629965 42.479224991872904 0 0 0 0 0 0 0 0 0 0 0 0 0 0 0 0 0 0 0 0 0 0 0 0 0 0 0 0 0 0 0 0 0 0 0 0 0 0 0 0 0 0 0 0 0 -0.0031574475173385967 -7.839464783702058 0.3598246920230922 -0.002166136095552849 -38.382891644602616 0.21366798158421108 0 0 0 0 0 0 0 0 0 13.368354657853978 -5.291296029965207 6.69671182265745 19.397238259907596 -66.28257904266857 50.58613404654864 21.469776741684132 49.196782890102966 -21.271152668536075 -3.996301022282679 2.0313889211845964 -37.45185305156169 0 0 0 0 0 0 0 0 0 0 0 0 0 0 0 0 0 0 0 0 0 0 0 0 0 0 0 0 0 0 0 0 0 0 0 0 0 0 0 0 0 0 0 0 0
-1.7550581260879454 -5.328043925855928 9.655618353892745 -0.000003120094696911501 71.30664328983406 -0.0000019555018610863428 -100.15051567397408 -61.11831824368437 115.90609123646615 164.91768065845304 62.698650420631246 156.43405575710057 -2.811462746680243 14.069866233429849 18.74450844108228 0 0 0 99.68199942602901 -60.741949608314854 -114.8580881057167 -164.903667494066 62.69949178974018 -156.5012703690444 2.6565317644415023 13.99565980161526 -17.956036279959026 0 0 0 -0.9458143736270328 38.87485624001663 -1.5735207464214982 -0.8276455108013983 -11.903893554193115 -0.48958184345680167 0 0 0 -10.165893153548494 -5.810602490287442 -8.066699596851556 -19.64874065892914 -68.16577720013122 -52.790284382196255 -33.08431419244988 53.69471702214833 9.503498603960152 4.344329552917508 2.2661889038502534 42.39716751304164 0 0 0 0 0 0 0 0 0 0 0 0 0 0 0 0 0 0 0 0 0 0 0 0 0 0 0 0 0 0 0 0 0 0 0 0 0 0 0 0 0 0 0 0 0 -0.0030737598004088565 -8.373984689357393 0.35983073651880226 -0.002112532818387962 -37.81303203304126 0.21360730628302338 0 0 0 0 0 0 0 0 0 13.3048965203366 -5.1181548175303195 6.848781786979742 19.397238259907596 -66.28257904266857 50.58613404654864 21.469776741684132 49.196782890102966 -21.271152668536075 -4.002664894974716 2.171831430791451 -37.371128011489105 0 0 0 0 0 0 0 0 0 0 0 0 0 0 0 0 0 0 0 0 0 0 0 0 0 0 0 0 0 0 0 0 0 0 0 0 0 0 0 0 0 0 0 0 0
-1.7550581260879454 -5.328043925855928 9.655618353892745 -0.000003120094696911501 71.30664328983406 -0.0000019555018610863428 -100.15051567397408 -61.11831824368437 115.90609123646615 164.91768065845304 62.698650420631246 156.43405575710057 -2.811462746680243 14.069866233429849 18.74450844108228 0 0 0 99.68199942602901 -60.741949608314854 -114.8580881057167 -164.903667494066 62.69949178974018 -156.5012703690444 2.6565317644415023 13.99565980161526 -17.956036279959026 0 0 0 -0.9495051560591548 39.160397062409764 -1.5794777690143629 -0.8295786443797133 -12.509197646060668 -0.48071490343410334 0 0 0 -10.122696898635631 -5.615926064239926 -8.210403560187014 -19.64874065892914 -68.16577720013122 -52.790284382196255 -33.08431419244988 53.69471702214833 9.503498603960152 4.355547454053196 2.3889924599405816 42.31512728341313 0 0 0 0 0 0 0 0 0 0 0 0 0 0 0 0 0 0 0 0 0 0 0 0 0 0 0 0 0 0 0 0 0 0 0 0 0 0 0 0 0 0 0 0 0 -0.0029900107189931922 -8.908504242793699 0.3598360091527651 -0.0020600955561586175 -37.24317450941202 0.21354776547183957 0 0 0 0 0 0 0 0 0 13.241916042524181 -4.944846642855204 7.000618771620081 19.397238259907596 -66.28257904266857 50.58613404654864 21.469776741684132 49.196782890102966 -21.271152668536075 -4.008831472728122 2.3122825109573206 -37.29040972848038 0 0 0 0 0 0 0 0 0 0 0 0 0 0 0 0 0 0 0 0 0 0 0 0 0 0 0 0 0 0 0 0 0 0 0 0 0 0 0 0 0 0 0 0 0
-1.7550581260879454 -5.328043925855928 9.655618353892745 -0.000003120094696911501 71.30664328983406 -0.0000019555018610863428 -100.15051567397408 -61.11831824368437 115.90609123646615 164.91768065845304 62.698650420631246 156.43405575710057 -2.811462746680243 14.069866233429849 18.74450844108228 0 0 0 99.68199942602901 -60.741949608314854 -114.8580881057167 -164.903667494066 62.69949178974018 -156.5012703690444 2.6565317644415023 13.99565980161526 -17.956036279959026 0 0 0 -0.9570499709054772 39.73164750923774 -1.5915398867229933 -0.8337554363201439 -13.721437008656924 -0.4628282935403974 0 0 0 -10.037801141343504 -5.2261666877577895 -8.497290190622348 -19.64874065892914 -68.16577720013122 -52.790284382196255 -33.08431419244988 53.69471702214833 9.503498603960152 4.377457934488379 2.6346683410529153 42.151078217415126 0 0 0 0 0 0 0 0 0 0 0 0 0 0 0 0 0 0 0 0 0 0 0 0 0 0 0 0 0 0 0 0 0 0 0 0 0 0 0 0 0 0 0 0 0 -0.002822645369567472 -9.978662648532751 0.3598451194111037 -0.00195922174116441 -36.10209833519067 0.2134334184367669 0 0 0 0 0 0 0 0 0 13.117360344310622 -4.597661921775382 7.303662953378127 19.397238259907596 -66.28257904266857 50.58613404654864 21.469779173438727 49.196782890102966 -21.271153886063868 -4.020574660812061 2.5932364180341345 -37.12897610262792 0 0 0 0 0 0 0 0 0 0 0 0 0 0 0 0 0 0 0 0 0 0 0 0 0 0 0 0 0 0 0 0 0 0 0 0 0 0 0 0 0 0 0 0 0
-1.7550581260879454 -5.328043925855928 9.655618353892745 -0.000003120094696911501 71.30664328983406 -0.0000019555018610863428 -100.15051567397408 -61.11831824368437 115.90609123646615 164.91768065845304 62.698650420631246 156.43405575710057 -2.811462746680243 14.069866233429849 18.74450844108228 0 0 0 99.68199942602901 -60.741949608314854 -114.8580881057167 -164.903667494066 62.69949178974018 -156.5012703690444 2.6565317644415023 13.99565980161526 -17.956036279959026 0 0 0 -0.9609062730400004 40.01734608886129 -1.597647327758606 -0.8360006712632702 -14.328237388051125 -0.4538050695905375 0 0 0 -9.996102553219798 -5.031095777800957 -8.640477483999845 -19.64874065892914 -68.16577720013122 -52.790284382196255 -33.08431419244988 53.69471702214833 9.503498603960152 4.388151406412729 2.7575373209563 42.069064473335054 0 0 0 0 0 0 0 0 0 0 0 0 0 0 0 0 0 0 0 0 0 0 0 0 0 0 0 0 0 0 0 0 0 0 0 0 0 0 0 0 0 0 0 0 0 -0.0027384594679835013 -10.514210195886553 0.35984830319965627 -0.0019100849273260118 -35.53098949695403 0.21337716668415854 0 0 0 0 0 0 0 0 0 13.055786776199609 -4.4237970348089455 7.4548747322796 19.397243081869163 -66.28258753315335 50.586131935580305 21.46977795756144 49.196782890102966 -21.271152668536075 -4.0261502672039216 2.7337373124016953 -37.04825751801142 0 0 0 0 0 0 0 0 0 0 0 0 0 0 0 0 0 0 0 0 0 0 0 0 0 0 0 0 0 0 0 0 0 0 0 0 0 0 0 0 0 0 0 0 0
